<svg xmlns="http://www.w3.org/2000/svg" width="512" height="512" viewBox="0 0 512 512">
  <title>Slug mascot logo</title>
  <g transform="translate(-18 -50) scale(1.05)" stroke="#000" stroke-linecap="round" stroke-linejoin="round">
    <!-- Slime trail -->
    <path d="M130 430
             C190 465 285 475 370 455
             C415 445 440 430 450 415
             C430 425 405 430 375 435
             C285 450 200 450 130 430 Z"
          fill="#B8FFD1" stroke="none" opacity="0.65"/>

    <!-- Slug body -->
    <path d="M120 360
             C110 300 150 250 235 245
             C310 240 370 250 410 280
             C445 305 450 345 425 372
             C395 410 335 430 260 430
             C185 430 130 410 110 390
             C98 378 105 368 120 360 Z"
          fill="#3ECC5F" stroke-width="14"/>
    <!-- Belly -->
    <path d="M145 372
             C165 400 210 412 262 412
             C315 412 355 400 383 382
             C400 370 408 360 412 350
             C400 365 372 374 340 380
             C305 387 270 388 232 386
             C195 384 165 380 145 372 Z"
          fill="#7DF39A" stroke="none"/>
    <!-- Spots -->
    <g fill="#44D860" stroke="none" opacity="0.95">
      <circle cx="200" cy="300" r="18"/>
      <circle cx="245" cy="285" r="12"/>
      <circle cx="285" cy="295" r="15"/>
      <circle cx="330" cy="305" r="12"/>
    </g>

    <!-- Eye stalks -->
    <path d="M362 262 C350 232 352 214 344 198" fill="none" stroke="#000" stroke-width="14"/>
    <path d="M392 266 C400 236 408 216 404 196" fill="none" stroke="#000" stroke-width="14"/>

    <!-- Eyes -->
    <g>
      <circle cx="344" cy="198" r="28" fill="#FFFFFF" stroke="#000" stroke-width="12"/>
      <circle cx="404" cy="196" r="28" fill="#FFFFFF" stroke="#000" stroke-width="12"/>
      <circle cx="350" cy="204" r="10" fill="#000" stroke="none"/>
      <circle cx="410" cy="202" r="10" fill="#000" stroke="none"/>
      <circle cx="346" cy="195" r="4" fill="#FFFFFF" stroke="none" opacity="0.9"/>
      <circle cx="406" cy="193" r="4" fill="#FFFFFF" stroke="none" opacity="0.9"/>
    </g>

    <!-- Mouth -->
    <path d="M376 348 C392 362 412 360 426 346" fill="none" stroke="#000" stroke-width="12"/>

    <!-- Cheeks -->
    <g fill="#FF7DAE" stroke="none" opacity="0.65">
            <circle cx="352" cy="360" r="10"/>
      <circle cx="378" cy="372" r="8"/>
</g>
  </g>
</svg>