<?xml version="1.0" encoding="UTF-8" standalone="no"?><!DOCTYPE svg PUBLIC "-//W3C//DTD SVG 1.1//EN" "http://www.w3.org/Graphics/SVG/1.1/DTD/svg11.dtd"><svg width="100%" height="100%" viewBox="0 0 514 255" version="1.1" xmlns="http://www.w3.org/2000/svg" xmlns:xlink="http://www.w3.org/1999/xlink" xml:space="preserve" xmlns:serif="http://www.serif.com/" style="fill-rule:evenodd;clip-rule:evenodd;stroke-linecap:round;stroke-linejoin:round;"><path d="M509.04,48.888c0,24.863 -60.223,45.048 -134.4,45.048c-11.044,0 -22.045,-0.456 -32.755,-1.358l-101.645,71.822l70.261,-75.924c-43.3,-7.881 -70.261,-23.072 -70.261,-39.587c0,-24.863 60.223,-45.048 134.4,-45.048c74.177,0 134.4,20.185 134.4,45.048Z" style="fill:#ebebeb;"/><g transform="matrix(20,0,0,20,449.848903,52.167765)"></g><text x="298.452px" y="52.168px" style="font-family:'ComicSansMS', 'Comic Sans MS', cursive;font-size:20px;fill:#3b914f;">Hey, code slow!!!</text><g><path d="M27.642,221.216c37.898,22.107 97.904,28.424 151.594,15.791c28.424,-6.316 44.215,-15.791 50.531,-25.266c-12.633,6.316 -28.424,9.475 -47.373,12.633c-56.848,9.475 -110.537,9.475 -154.752,-3.158Z" style="fill:#b8ffd1;fill-opacity:0.65;fill-rule:nonzero;"/><path d="M21.326,177.001c-6.316,-37.898 18.949,-69.48 72.639,-72.639c47.373,-3.158 85.271,3.158 110.537,22.107c22.107,15.791 25.266,41.057 9.475,58.111c-18.949,24.002 -56.848,36.635 -104.221,36.635c-47.373,0 -82.113,-12.633 -94.746,-25.266c-7.58,-7.58 -3.158,-13.896 6.316,-18.949Z" style="fill:#3ecc5f;fill-rule:nonzero;stroke:#000;stroke-width:8.84px;"/><path d="M37.117,184.581c12.633,17.686 41.057,25.266 73.902,25.266c33.477,0 58.743,-7.58 76.429,-18.949c10.738,-7.58 15.791,-13.896 18.318,-20.213c-7.58,9.475 -25.266,15.159 -45.478,18.949c-22.107,4.421 -44.215,5.053 -68.217,3.79c-23.371,-1.263 -42.32,-3.79 -54.953,-8.843Z" style="fill:#7df39a;fill-rule:nonzero;"/><g opacity="0.95"><circle cx="71.857" cy="139.103" r="11.37" style="fill:#44d860;"/><circle cx="100.281" cy="129.628" r="7.58" style="fill:#44d860;"/><circle cx="125.546" cy="135.944" r="9.475" style="fill:#44d860;"/><circle cx="153.97" cy="142.261" r="7.58" style="fill:#44d860;"/></g><path d="M174.183,115.1c-7.58,-18.949 -6.316,-30.319 -11.37,-40.425" style="fill:none;fill-rule:nonzero;stroke:#000;stroke-width:8.84px;"/><path d="M193.132,117.627c5.053,-18.949 10.106,-31.582 7.58,-44.215" style="fill:none;fill-rule:nonzero;stroke:#000;stroke-width:8.84px;"/><g><circle cx="162.813" cy="74.675" r="17.686" style="fill:#fff;stroke:#000;stroke-width:7.58px;"/><circle cx="200.712" cy="73.412" r="17.686" style="fill:#fff;stroke:#000;stroke-width:7.58px;"/><circle cx="166.603" cy="78.465" r="6.316"/><circle cx="204.501" cy="77.202" r="6.316"/><circle cx="164.076" cy="72.78" r="2.527" style="fill:#fff;fill-opacity:0.9;"/><circle cx="201.975" cy="71.517" r="2.527" style="fill:#fff;fill-opacity:0.9;"/></g><path d="M183.026,169.421c10.106,8.843 22.739,7.58 31.582,-1.263" style="fill:none;fill-rule:nonzero;stroke:#000;stroke-width:7.58px;"/><g opacity="0.65"><circle cx="167.866" cy="177.001" r="6.316" style="fill:#ff7dae;"/><circle cx="184.289" cy="184.581" r="5.053" style="fill:#ff7dae;"/></g></g></svg>